<?xml version="1.0" encoding="iso-8859-1"?>
<!-- Generator: Adobe Illustrator 19.0.0, SVG Export Plug-In . SVG Version: 6.00 Build 0)  -->
<svg version="1.1" id="Layer_1" xmlns="http://www.w3.org/2000/svg" xmlns:xlink="http://www.w3.org/1999/xlink" x="0px" y="0px"
	 viewBox="0 0 512 512" style="enable-background:new 0 0 512 512;" xml:space="preserve">
<circle cx="256" cy="256" r="256"/>
<g>
	<path style="fill:#E21B1B;" d="M107.944,259.224v-97.352h43.168c8.672,0,15.264,0.872,19.784,2.624s8.128,4.832,10.832,9.256
		c2.704,4.432,4.048,9.32,4.048,14.68c0,6.904-2.232,12.728-6.704,17.464c-4.472,4.744-11.376,7.752-20.72,9.032
		c3.408,1.64,6,3.256,7.768,4.848c3.768,3.456,7.328,7.776,10.696,12.944l16.928,26.496h-16.2l-12.872-20.248
		c-3.768-5.84-6.864-10.32-9.296-13.424c-2.44-3.096-4.616-5.264-6.544-6.496c-1.92-1.24-3.88-2.112-5.872-2.592
		c-1.464-0.312-3.848-0.472-7.168-0.472h-14.936v43.232h-12.912V259.224z M120.832,204.84h27.688c5.888,0,10.496-0.6,13.816-1.824
		s5.84-3.168,7.568-5.84s2.584-5.592,2.584-8.736c0-4.6-1.664-8.392-5.008-11.352c-3.344-2.968-8.624-4.456-15.832-4.456h-30.816
		C120.832,172.632,120.832,204.84,120.832,204.84z"/>
	<path style="fill:#E21B1B;" d="M250.664,259.224v-10.36c-5.496,7.968-12.952,11.952-22.384,11.952c-4.168,0-8.048-0.8-11.656-2.392
		s-6.28-3.592-8.032-6.008s-2.976-5.368-3.688-8.864c-0.488-2.344-0.728-6.064-0.728-11.16v-43.696h11.952v39.12
		c0,6.232,0.24,10.448,0.728,12.608c0.752,3.152,2.344,5.616,4.784,7.408c2.44,1.8,5.448,2.688,9.032,2.688
		s6.952-0.912,10.096-2.752s5.368-4.344,6.672-7.504s1.96-7.76,1.96-13.776v-37.792h11.952v70.52h-10.688V259.224z"/>
	<path style="fill:#E21B1B;" d="M291.104,259.224h-11.088v-97.352h11.952V196.6c5.048-6.328,11.496-9.496,19.32-9.496
		c4.344,0,8.448,0.872,12.32,2.624s7.064,4.2,9.56,7.368s4.464,6.984,5.88,11.456c1.416,4.48,2.128,9.256,2.128,14.344
		c0,12.096-2.992,21.432-8.968,28.032c-5.976,6.592-13.152,9.888-21.512,9.888c-8.32,0-14.848-3.48-19.592-10.424V259.224z
		 M290.976,223.432c0,8.464,1.152,14.568,3.456,18.328c3.76,6.16,8.848,9.232,15.264,9.232c5.224,0,9.744-2.264,13.544-6.808
		c3.816-4.536,5.72-11.304,5.72-20.288c0-9.208-1.832-16-5.488-20.392c-3.648-4.376-8.064-6.568-13.248-6.568
		c-5.216,0-9.736,2.264-13.544,6.808C292.872,208.28,290.976,214.84,290.976,223.432z"/>
	<path style="fill:#E21B1B;" d="M355.192,286.384l-1.328-11.216c2.608,0.712,4.888,1.064,6.832,1.064
		c2.656,0,4.784-0.448,6.376-1.328s2.896-2.128,3.912-3.72c0.76-1.192,1.976-4.168,3.656-8.896c0.216-0.664,0.576-1.64,1.064-2.92
		l-26.768-70.656h12.888l14.672,40.832c1.904,5.184,3.608,10.624,5.112,16.344c1.376-5.496,3.016-10.848,4.92-16.08l15.072-41.104
		h11.952l-26.832,71.72c-2.872,7.752-5.12,13.088-6.712,16.008c-2.128,3.936-4.552,6.832-7.296,8.664
		c-2.752,1.832-6.024,2.76-9.832,2.76C360.592,287.848,358.024,287.36,355.192,286.384z"/>
</g>
<rect x="92" y="338.4" style="fill:#999999;" width="328" height="8"/>
<path style="fill:#FFFFFF;" d="M420,373.104h-8v-8h8V373.104z M404,373.104h-8v-8h8V373.104z M388,373.104h-8v-8h8V373.104z
	 M372,373.104h-8v-8h8V373.104z M356,373.104h-8v-8h8V373.104z M340,373.104h-8v-8h8V373.104z M324,373.104h-8v-8h8V373.104z
	 M308,373.104h-8v-8h8V373.104z M292,373.104h-8v-8h8V373.104z M276,373.104h-8v-8h8V373.104z M260,373.104h-8v-8h8V373.104z
	 M244,373.104h-8v-8h8V373.104z M228,373.104h-8v-8h8V373.104z M212,373.104h-8v-8h8V373.104z M196,373.104h-8v-8h8V373.104z
	 M180,373.104h-8v-8h8V373.104z M164,373.104h-8v-8h8V373.104z M148,373.104h-8v-8h8V373.104z M132,373.104h-8v-8h8V373.104z
	 M116,373.104h-8v-8h8V373.104z M100,373.104h-8v-8h8V373.104z"/>
<g>
</g>
<g>
</g>
<g>
</g>
<g>
</g>
<g>
</g>
<g>
</g>
<g>
</g>
<g>
</g>
<g>
</g>
<g>
</g>
<g>
</g>
<g>
</g>
<g>
</g>
<g>
</g>
<g>
</g>
</svg>
